<?xml version="1.0" encoding="UTF-8"?>
<svg id="Layer_1" data-name="Layer 1" xmlns="http://www.w3.org/2000/svg" viewBox="0 0 16 16">
  <defs>
    <style>
      .cls-1 {
        fill: #212121;
        stroke-width: 0px;
      }
    </style>
  </defs>
  <path class="cls-1" d="m13.57,5.86c-3.07-3.07-8.07-3.07-11.13,0l-1.79,1.79v.71l1.79,1.79c1.53,1.54,3.55,2.3,5.57,2.3s4.03-.77,5.57-2.3l1.79-1.79v-.71l-1.79-1.79Zm-.71,3.57c-2.68,2.68-7.04,2.68-9.72,0l-1.43-1.43,1.43-1.43c2.68-2.68,7.04-2.68,9.72,0l1.43,1.43-1.43,1.43Z"/>
  <path class="cls-1" d="m8,5c-1.65,0-3,1.35-3,3s1.35,3,3,3,3-1.35,3-3-1.35-3-3-3Zm0,5c-1.1,0-2-.9-2-2s.9-2,2-2,2,.9,2,2-.9,2-2,2Z"/>
</svg>